<?xml version="1.0" encoding="utf-8"?>
<!-- Generator: Adobe Illustrator 21.1.0, SVG Export Plug-In . SVG Version: 6.00 Build 0)  -->
<svg version="1.1" id="Capa_1" xmlns="http://www.w3.org/2000/svg" xmlns:xlink="http://www.w3.org/1999/xlink" x="0px" y="0px"
	 viewBox="0 0 490 490" style="enable-background:new 0 0 490 490;" xml:space="preserve">
<style type="text/css">
	.st0{display:none;}
	.st1{display:inline;}
	.st2{stroke:#000000;stroke-width:5;stroke-miterlimit:10;}
</style>
<g class="st0">
	<path class="st1" d="M0,167.9V384c0,33,26.8,59.8,59.8,59.8h370.4c33,0,59.8-26.8,59.8-59.8V167.8c0-31.4-25.5-56.9-56.9-56.9
		h-79.6l-1.9-8.3c-7.7-33.3-37-56.5-71.2-56.5h-70.9c-34.1,0-63.4,23.2-71.2,56.5l-1.9,8.3H56.9C25.5,110.9,0,136.6,0,167.9z
		 M146.2,135.4c5.7,0,10.6-3.9,11.9-9.5l4.1-17.8c5.2-22.1,24.6-37.5,47.3-37.5h70.9c22.7,0,42.1,15.4,47.3,37.5l4.1,17.8
		c1.3,5.5,6.2,9.5,11.9,9.5H433c17.9,0,32.4,14.5,32.4,32.4V384c0,19.5-15.8,35.3-35.3,35.3H59.8c-19.5,0-35.3-15.8-35.3-35.3V167.8
		c0-17.9,14.5-32.4,32.4-32.4L146.2,135.4L146.2,135.4z"/>
	<circle class="st1" cx="82.9" cy="187.8" r="16.4"/>
	<path class="st1" d="M245,381c56.7,0,102.9-46.2,102.9-102.9S301.7,175.2,245,175.2s-102.9,46.1-102.9,102.9S188.3,381,245,381z
		 M245,199.6c43.2,0,78.4,35.2,78.4,78.4s-35.2,78.4-78.4,78.4s-78.4-35.2-78.4-78.4S201.8,199.6,245,199.6z"/>
</g>
<g>
	<path class="st2" d="M282.3,66.8c9.9,0,19.1,3.6,26.1,10.1l21,19.6c18.5,17.3,43.2,26.8,69.4,26.8h8.3c33.4,0,60.6,25.3,60.6,56.3
		l0.1,188.2c0,15.1-6.3,29.2-17.7,39.9c-11.4,10.6-26.7,16.5-42.9,16.5H83.4c-33.4,0-60.6-25.3-60.6-56.3l-0.1-188.2
		c0-15.1,6.3-29.2,17.7-39.9c11.4-10.6,26.7-16.5,42.8-16.5h8.3c26.2,0,50.8-9.5,69.3-26.7l21.2-19.7c7-6.5,16.2-10,26.1-10H282.3
		 M282.3,48h-74.1c-15.1,0-29.7,5.6-40.4,15.5l-21.2,19.7c-14.6,13.6-34.4,21.2-55,21.2h-8.3c-44.6,0-80.8,33.7-80.8,75.2l0.1,188.2
		c0,41.5,36.2,75.1,80.8,75.1h323.8c44.6,0,80.8-33.7,80.8-75.2l-0.1-188.2c0-41.5-36.2-75.1-80.8-75.1h-8.3
		c-20.7,0-40.5-7.6-55.1-21.2l-21-19.6C312,53.6,297.5,48,282.3,48L282.3,48z"/>
	<path class="st2" d="M245.2,165.9c55.8,0,101.1,45.4,101.1,101.3c0,55.9-45.4,101.3-101.1,101.3c-55.8,0-101.1-45.4-101.1-101.3
		C144.1,211.4,189.5,165.9,245.2,165.9 M245.2,145.7c-67,0-121.4,54.4-121.4,121.6c0,67.1,54.3,121.6,121.4,121.6
		c67,0,121.4-54.4,121.4-121.6C366.6,200.1,312.3,145.7,245.2,145.7L245.2,145.7z"/>
</g>
</svg>
