<?xml version="1.0" encoding="utf-8"?>
<!-- Generator: Adobe Illustrator 21.1.0, SVG Export Plug-In . SVG Version: 6.00 Build 0)  -->
<svg version="1.1" xmlns="http://www.w3.org/2000/svg" xmlns:xlink="http://www.w3.org/1999/xlink" x="0px" y="0px"
	 viewBox="0 0 330 330" style="enable-background:new 0 0 330 330;" xml:space="preserve">
<style type="text/css">
	.st0{display:none;}
	.st1{display:inline;}
</style>
<g id="Capa_1">
	<g class="st0">
		<path d="M165,0C74,0,0,74,0,165c0,91,74,165,165,165s165-74,165-165C330,74,256,0,165,0z M165,300c-74.4,0-135-60.6-135-135
			S90.6,30,165,30s135,60.6,135,135S239.4,300,165,300z"/>
		<path class="st1" d="M212,127.1l-31.9,31.9V74.6c0-8.3-6.8-15.1-15.1-15.1c-8.3,0-15.1,6.8-15.1,15.1v84.3L118,127.1
			c-5.9-5.9-15.5-5.9-21.4,0c-5.9,5.9-5.9,15.5,0,21.4l57.7,57.7c2.9,2.9,6.8,4.4,10.7,4.4s7.7-1.5,10.7-4.4l57.7-57.7
			c5.9-5.9,5.9-15.5,0-21.4C227.4,121.2,217.9,121.2,212,127.1z"/>
		<path d="M195,240h-60c-8.3,0-15,6.7-15,15c0,8.3,6.7,15,15,15h60c8.3,0,15-6.7,15-15C210,246.7,203.3,240,195,240z"/>
	</g>
	<path d="M162.5,301.2L162.5,301.2c-10.9,0-19.9-8.9-19.9-19.9V103.8c0-10.9,8.9-19.9,19.9-19.9h0c10.9,0,19.9,8.9,19.9,19.9v177.5
		C182.3,292.3,173.4,301.2,162.5,301.2z"/>
	<path d="M148,295.5L148,295.5c-7.7-7.7-7.7-20.4,0-28.1l81.3-81.3c7.7-7.7,20.4-7.7,28.1,0l0,0c7.7,7.7,7.7,20.4,0,28.1l-81.3,81.3
		C168.4,303.2,155.7,303.2,148,295.5z"/>
	<path d="M176.6,295.5L176.6,295.5c-7.7,7.7-20.4,7.7-28.1,0l-81.3-81.3c-7.7-7.7-7.7-20.4,0-28.1l0,0c7.7-7.7,20.4-7.7,28.1,0
		l81.3,81.3C184.3,275.1,184.3,287.7,176.6,295.5z"/>
	<path d="M162.5,68.5L162.5,68.5c-10.9,0-19.9-8.9-19.9-19.9v0c0-10.9,8.9-19.9,19.9-19.9h0c10.9,0,19.9,8.9,19.9,19.9v0
		C182.3,59.5,173.4,68.5,162.5,68.5z"/>
</g>
<g id="Слой_2">
</g>
</svg>
